<svg width="1600" height="80" viewBox="0 0 1600 80" fill="none" xmlns="http://www.w3.org/2000/svg">
<rect width="1600" height="80.0001" transform="matrix(-1 -8.74228e-08 -8.74228e-08 1 1600 0.000137329)" fill="#FFE6D2"/>
<g clip-path="url(#clip0_201_367)">
<path d="M1312 40.5225C1312 36.1042 1308.42 32.5225 1304 32.5225C1299.58 32.5225 1296 36.1042 1296 40.5225C1296 44.5154 1298.93 47.8251 1302.75 48.4253V42.835H1300.72V40.5225H1302.75V38.76C1302.75 36.755 1303.94 35.6475 1305.77 35.6475C1306.65 35.6475 1307.56 35.8037 1307.56 35.8037V37.7725H1306.55C1305.56 37.7725 1305.25 38.3892 1305.25 39.0225V40.5225H1307.47L1307.11 42.835H1305.25V48.4253C1309.07 47.8251 1312 44.5154 1312 40.5225Z" fill="#232536"/>
</g>
<g clip-path="url(#clip1_201_367)">
<path d="M1343.7 47.0225C1349.74 47.0225 1353.04 42.0204 1353.04 37.6838C1353.04 37.5432 1353.04 37.3994 1353.03 37.2588C1353.67 36.7942 1354.23 36.2187 1354.67 35.5594C1354.07 35.8256 1353.43 35.9995 1352.78 36.075C1353.47 35.6645 1353.98 35.0195 1354.23 34.2597C1353.58 34.6416 1352.88 34.911 1352.14 35.0563C1351.65 34.5303 1350.99 34.182 1350.28 34.0653C1349.57 33.9485 1348.84 34.0699 1348.2 34.4106C1347.56 34.7513 1347.05 35.2924 1346.76 35.9501C1346.46 36.6078 1346.38 37.3456 1346.55 38.0494C1345.24 37.9839 1343.97 37.645 1342.8 37.0546C1341.63 36.4642 1340.61 35.6355 1339.78 34.6222C1339.36 35.3447 1339.23 36.1996 1339.42 37.0133C1339.61 37.8269 1340.1 38.5382 1340.8 39.0025C1340.28 38.986 1339.77 38.8457 1339.31 38.5932V38.6338C1339.31 39.392 1339.57 40.1269 1340.05 40.7137C1340.53 41.3005 1341.2 41.7029 1341.94 41.8525C1341.46 41.9846 1340.95 42.0039 1340.46 41.9088C1340.67 42.5608 1341.08 43.1311 1341.63 43.5401C1342.18 43.9491 1342.84 44.1763 1343.53 44.19C1342.37 45.1033 1340.93 45.5986 1339.45 45.5963C1339.19 45.5959 1338.93 45.5798 1338.67 45.5482C1340.17 46.5117 1341.92 47.0235 1343.7 47.0225Z" fill="#232536"/>
</g>
<g clip-path="url(#clip2_201_367)">
<path d="M1389.33 33.9631C1391.47 33.9631 1391.72 33.9725 1392.56 34.01C1393.35 34.0443 1393.77 34.1756 1394.05 34.285C1394.42 34.4287 1394.69 34.6037 1394.97 34.8818C1395.25 35.1631 1395.42 35.4287 1395.56 35.8006C1395.67 36.0818 1395.81 36.5068 1395.84 37.285C1395.88 38.1287 1395.89 38.3818 1395.89 40.5162C1395.89 42.6537 1395.88 42.9068 1395.84 43.7475C1395.81 44.5287 1395.67 44.9506 1395.56 45.2318C1395.42 45.6037 1395.25 45.8725 1394.97 46.1506C1394.69 46.4318 1394.42 46.6037 1394.05 46.7475C1393.77 46.8568 1393.34 46.9881 1392.56 47.0225C1391.72 47.06 1391.47 47.0693 1389.33 47.0693C1387.2 47.0693 1386.94 47.06 1386.1 47.0225C1385.32 46.9881 1384.9 46.8568 1384.62 46.7475C1384.25 46.6037 1383.98 46.4287 1383.7 46.1506C1383.42 45.8693 1383.25 45.6037 1383.1 45.2318C1382.99 44.9506 1382.86 44.5256 1382.83 43.7475C1382.79 42.9037 1382.78 42.6506 1382.78 40.5162C1382.78 38.3787 1382.79 38.1256 1382.83 37.285C1382.86 36.5037 1382.99 36.0818 1383.1 35.8006C1383.25 35.4287 1383.42 35.16 1383.7 34.8818C1383.98 34.6006 1384.25 34.4287 1384.62 34.285C1384.9 34.1756 1385.32 34.0443 1386.1 34.01C1386.94 33.9725 1387.2 33.9631 1389.33 33.9631ZM1389.33 32.5225C1387.16 32.5225 1386.89 32.5318 1386.04 32.5693C1385.19 32.6068 1384.6 32.7443 1384.1 32.9412C1383.57 33.1475 1383.12 33.4193 1382.68 33.8662C1382.23 34.31 1381.96 34.7568 1381.75 35.2818C1381.56 35.7912 1381.42 36.3725 1381.38 37.2225C1381.34 38.0787 1381.33 38.3506 1381.33 40.5225C1381.33 42.6943 1381.34 42.9662 1381.38 43.8193C1381.42 44.6693 1381.56 45.2537 1381.75 45.76C1381.96 46.2881 1382.23 46.735 1382.68 47.1787C1383.12 47.6225 1383.57 47.8975 1384.09 48.1006C1384.6 48.2975 1385.18 48.435 1386.03 48.4725C1386.89 48.51 1387.16 48.5193 1389.33 48.5193C1391.5 48.5193 1391.77 48.51 1392.63 48.4725C1393.48 48.435 1394.06 48.2975 1394.57 48.1006C1395.09 47.8975 1395.54 47.6225 1395.98 47.1787C1396.43 46.735 1396.7 46.2881 1396.91 45.7631C1397.1 45.2537 1397.24 44.6725 1397.28 43.8225C1397.31 42.9693 1397.32 42.6975 1397.32 40.5256C1397.32 38.3537 1397.31 38.0818 1397.28 37.2287C1397.24 36.3787 1397.1 35.7943 1396.91 35.2881C1396.71 34.7568 1396.44 34.31 1395.99 33.8662C1395.55 33.4225 1395.1 33.1475 1394.57 32.9443C1394.06 32.7475 1393.48 32.61 1392.63 32.5725C1391.78 32.5318 1391.51 32.5225 1389.33 32.5225Z" fill="#232536"/>
<path d="M1389.33 36.4131C1387.06 36.4131 1385.22 38.2537 1385.22 40.5225C1385.22 42.7912 1387.06 44.6318 1389.33 44.6318C1391.6 44.6318 1393.44 42.7912 1393.44 40.5225C1393.44 38.2537 1391.6 36.4131 1389.33 36.4131ZM1389.33 43.1881C1387.86 43.1881 1386.67 41.9943 1386.67 40.5225C1386.67 39.0506 1387.86 37.8568 1389.33 37.8568C1390.81 37.8568 1392 39.0506 1392 40.5225C1392 41.9943 1390.81 43.1881 1389.33 43.1881Z" fill="#232536"/>
<path d="M1394.56 36.2506C1394.56 36.7818 1394.13 37.2099 1393.61 37.2099C1393.07 37.2099 1392.65 36.7787 1392.65 36.2506C1392.65 35.7193 1393.08 35.2912 1393.61 35.2912C1394.13 35.2912 1394.56 35.7224 1394.56 36.2506Z" fill="#232536"/>
</g>
<g clip-path="url(#clip3_201_367)">
<path d="M1438.82 32.5225H1425.18C1424.53 32.5225 1424 33.0381 1424 33.6756V47.3662C1424 48.0037 1424.53 48.5225 1425.18 48.5225H1438.82C1439.47 48.5225 1440 48.0037 1440 47.3693V33.6756C1440 33.0381 1439.47 32.5225 1438.82 32.5225ZM1428.75 46.1568H1426.37V38.5193H1428.75V46.1568ZM1427.56 37.4787C1426.8 37.4787 1426.18 36.8631 1426.18 36.1037C1426.18 35.3443 1426.8 34.7287 1427.56 34.7287C1428.32 34.7287 1428.93 35.3443 1428.93 36.1037C1428.93 36.86 1428.32 37.4787 1427.56 37.4787ZM1437.63 46.1568H1435.26V42.4443C1435.26 41.56 1435.25 40.4193 1434.03 40.4193C1432.79 40.4193 1432.61 41.385 1432.61 42.3818V46.1568H1430.24V38.5193H1432.51V39.5631H1432.54C1432.86 38.9631 1433.63 38.3287 1434.79 38.3287C1437.19 38.3287 1437.63 39.91 1437.63 41.9662V46.1568Z" fill="#232536"/>
</g>
<path d="M328.32 37.2594C329.408 37.2594 330.373 37.5048 331.216 37.9954C332.059 38.4754 332.715 39.1474 333.184 40.0114C333.653 40.8754 333.888 41.8568 333.888 42.9554C333.888 44.0541 333.653 45.0408 333.184 45.9154C332.715 46.7794 332.059 47.4568 331.216 47.9474C330.373 48.4274 329.408 48.6674 328.32 48.6674C327.232 48.6674 326.261 48.4274 325.408 47.9474C324.565 47.4568 323.909 46.7794 323.44 45.9154C322.971 45.0408 322.736 44.0541 322.736 42.9554C322.736 41.8568 322.971 40.8754 323.44 40.0114C323.909 39.1474 324.565 38.4754 325.408 37.9954C326.261 37.5048 327.232 37.2594 328.32 37.2594ZM328.32 37.9954C327.349 37.9954 326.501 38.1981 325.776 38.6034C325.061 39.0088 324.507 39.5901 324.112 40.3474C323.728 41.0941 323.536 41.9634 323.536 42.9554C323.536 43.9474 323.728 44.8168 324.112 45.5634C324.507 46.3101 325.061 46.8914 325.776 47.3074C326.501 47.7234 327.349 47.9314 328.32 47.9314C329.28 47.9314 330.117 47.7234 330.832 47.3074C331.557 46.8914 332.112 46.3101 332.496 45.5634C332.891 44.8168 333.088 43.9474 333.088 42.9554C333.088 41.9634 332.891 41.0941 332.496 40.3474C332.112 39.5901 331.563 39.0088 330.848 38.6034C330.133 38.1981 329.291 37.9954 328.32 37.9954ZM328.272 39.2754C327.621 39.2754 327.029 39.4301 326.496 39.7394C325.963 40.0381 325.541 40.4648 325.232 41.0194C324.933 41.5741 324.784 42.2141 324.784 42.9394C324.784 43.6648 324.939 44.3101 325.248 44.8754C325.557 45.4301 325.973 45.8621 326.496 46.1714C327.029 46.4701 327.621 46.6194 328.272 46.6194C329.083 46.6194 329.781 46.4061 330.368 45.9794C330.955 45.5421 331.349 44.9714 331.552 44.2674H329.888C329.749 44.6088 329.552 44.8701 329.296 45.0514C329.04 45.2328 328.699 45.3234 328.272 45.3234C327.707 45.3234 327.253 45.1208 326.912 44.7154C326.571 44.2994 326.4 43.7074 326.4 42.9394C326.4 42.1714 326.571 41.5848 326.912 41.1794C327.253 40.7741 327.707 40.5714 328.272 40.5714C328.677 40.5714 329.019 40.6621 329.296 40.8434C329.584 41.0248 329.781 41.2861 329.888 41.6274H331.552C331.349 40.8808 330.96 40.3048 330.384 39.8994C329.808 39.4834 329.104 39.2754 328.272 39.2754ZM336.593 46.0434C337.617 45.1581 338.422 44.4328 339.009 43.8674C339.606 43.2914 340.102 42.6941 340.497 42.0754C340.892 41.4568 341.089 40.8381 341.089 40.2194C341.089 39.5794 340.934 39.0781 340.625 38.7154C340.326 38.3528 339.852 38.1714 339.201 38.1714C338.572 38.1714 338.081 38.3741 337.729 38.7794C337.388 39.1741 337.206 39.7074 337.185 40.3794H335.425C335.457 39.1634 335.82 38.2354 336.513 37.5954C337.217 36.9448 338.108 36.6194 339.185 36.6194C340.348 36.6194 341.254 36.9394 341.905 37.5794C342.566 38.2194 342.897 39.0728 342.897 40.1394C342.897 40.9074 342.7 41.6488 342.305 42.3634C341.921 43.0674 341.457 43.7021 340.913 44.2674C340.38 44.8221 339.697 45.4674 338.865 46.2034L338.145 46.8434H343.217V48.3634H335.441V47.0354L336.593 46.0434ZM344.819 42.5394C344.819 40.6941 345.129 39.2541 345.747 38.2194C346.377 37.1741 347.454 36.6514 348.979 36.6514C350.505 36.6514 351.577 37.1741 352.195 38.2194C352.825 39.2541 353.139 40.6941 353.139 42.5394C353.139 44.4061 352.825 45.8674 352.195 46.9234C351.577 47.9688 350.505 48.4914 348.979 48.4914C347.454 48.4914 346.377 47.9688 345.747 46.9234C345.129 45.8674 344.819 44.4061 344.819 42.5394ZM351.347 42.5394C351.347 41.6754 351.289 40.9448 351.171 40.3474C351.065 39.7501 350.841 39.2648 350.499 38.8914C350.158 38.5074 349.651 38.3154 348.979 38.3154C348.307 38.3154 347.801 38.5074 347.459 38.8914C347.118 39.2648 346.889 39.7501 346.771 40.3474C346.665 40.9448 346.611 41.6754 346.611 42.5394C346.611 43.4354 346.665 44.1874 346.771 44.7954C346.878 45.4034 347.102 45.8941 347.443 46.2674C347.795 46.6408 348.307 46.8274 348.979 46.8274C349.651 46.8274 350.158 46.6408 350.499 46.2674C350.851 45.8941 351.081 45.4034 351.187 44.7954C351.294 44.1874 351.347 43.4354 351.347 42.5394ZM356.077 46.0434C357.101 45.1581 357.907 44.4328 358.493 43.8674C359.091 43.2914 359.587 42.6941 359.981 42.0754C360.376 41.4568 360.573 40.8381 360.573 40.2194C360.573 39.5794 360.419 39.0781 360.109 38.7154C359.811 38.3528 359.336 38.1714 358.685 38.1714C358.056 38.1714 357.565 38.3741 357.213 38.7794C356.872 39.1741 356.691 39.7074 356.669 40.3794H354.909C354.941 39.1634 355.304 38.2354 355.997 37.5954C356.701 36.9448 357.592 36.6194 358.669 36.6194C359.832 36.6194 360.739 36.9394 361.389 37.5794C362.051 38.2194 362.381 39.0728 362.381 40.1394C362.381 40.9074 362.184 41.6488 361.789 42.3634C361.405 43.0674 360.941 43.7021 360.397 44.2674C359.864 44.8221 359.181 45.4674 358.349 46.2034L357.629 46.8434H362.701V48.3634H354.925V47.0354L356.077 46.0434ZM364.064 38.5234V36.8594H367.392V48.5234H365.552V38.5234H364.064ZM380.838 37.4034V38.8914H376.118V42.1714H379.798V43.6594H376.118V48.5234H374.294V37.4034H380.838ZM383.456 38.5394C383.125 38.5394 382.848 38.4274 382.624 38.2034C382.4 37.9794 382.288 37.7021 382.288 37.3714C382.288 37.0408 382.4 36.7634 382.624 36.5394C382.848 36.3154 383.125 36.2034 383.456 36.2034C383.776 36.2034 384.048 36.3154 384.272 36.5394C384.496 36.7634 384.608 37.0408 384.608 37.3714C384.608 37.7021 384.496 37.9794 384.272 38.2034C384.048 38.4274 383.776 38.5394 383.456 38.5394ZM384.352 39.7074V48.5234H382.528V39.7074H384.352ZM391.195 39.5634C391.888 39.5634 392.507 39.7074 393.051 39.9954C393.606 40.2834 394.038 40.7101 394.347 41.2754C394.656 41.8408 394.811 42.5234 394.811 43.3234V48.5234H393.003V43.5954C393.003 42.8061 392.806 42.2034 392.411 41.7874C392.016 41.3608 391.478 41.1474 390.795 41.1474C390.112 41.1474 389.568 41.3608 389.163 41.7874C388.768 42.2034 388.571 42.8061 388.571 43.5954V48.5234H386.747V39.7074H388.571V40.7154C388.87 40.3528 389.248 40.0701 389.707 39.8674C390.176 39.6648 390.672 39.5634 391.195 39.5634ZM400.338 48.6674C399.644 48.6674 399.02 48.5448 398.466 48.2994C397.922 48.0434 397.49 47.7021 397.17 47.2754C396.85 46.8381 396.679 46.3528 396.658 45.8194H398.546C398.578 46.1928 398.754 46.5074 399.074 46.7634C399.404 47.0088 399.815 47.1314 400.306 47.1314C400.818 47.1314 401.212 47.0354 401.49 46.8434C401.778 46.6408 401.922 46.3848 401.922 46.0754C401.922 45.7448 401.762 45.4994 401.442 45.3394C401.132 45.1794 400.636 45.0034 399.954 44.8114C399.292 44.6301 398.754 44.4541 398.338 44.2834C397.922 44.1128 397.559 43.8514 397.25 43.4994C396.951 43.1474 396.802 42.6834 396.802 42.1074C396.802 41.6381 396.94 41.2114 397.218 40.8274C397.495 40.4328 397.89 40.1234 398.402 39.8994C398.924 39.6754 399.522 39.5634 400.194 39.5634C401.196 39.5634 402.002 39.8194 402.61 40.3314C403.228 40.8328 403.559 41.5208 403.602 42.3954H401.778C401.746 42.0008 401.586 41.6861 401.298 41.4514C401.01 41.2168 400.62 41.0994 400.13 41.0994C399.65 41.0994 399.282 41.1901 399.026 41.3714C398.77 41.5528 398.642 41.7928 398.642 42.0914C398.642 42.3261 398.727 42.5234 398.898 42.6834C399.068 42.8434 399.276 42.9714 399.522 43.0674C399.767 43.1528 400.13 43.2648 400.61 43.4034C401.25 43.5741 401.772 43.7501 402.178 43.9314C402.594 44.1021 402.951 44.3581 403.25 44.6994C403.548 45.0408 403.703 45.4941 403.714 46.0594C403.714 46.5608 403.575 47.0088 403.298 47.4034C403.02 47.7981 402.626 48.1074 402.114 48.3314C401.612 48.5554 401.02 48.6674 400.338 48.6674ZM417.524 39.7074L414.788 48.5234H412.868L411.092 42.0114L409.316 48.5234H407.396L404.644 39.7074H406.5L408.34 46.7954L410.212 39.7074H412.116L413.908 46.7634L415.732 39.7074H417.524ZM426.968 43.8994C426.968 44.2301 426.946 44.5288 426.904 44.7954H420.168C420.221 45.4994 420.482 46.0648 420.952 46.4914C421.421 46.9181 421.997 47.1314 422.68 47.1314C423.661 47.1314 424.354 46.7208 424.76 45.8994H426.727C426.461 46.7101 425.976 47.3768 425.272 47.8994C424.578 48.4114 423.714 48.6674 422.68 48.6674C421.837 48.6674 421.08 48.4808 420.408 48.1074C419.746 47.7234 419.224 47.1901 418.84 46.5074C418.466 45.8141 418.28 45.0141 418.28 44.1074C418.28 43.2008 418.461 42.4061 418.824 41.7234C419.197 41.0301 419.714 40.4968 420.376 40.1234C421.048 39.7501 421.816 39.5634 422.68 39.5634C423.512 39.5634 424.253 39.7448 424.904 40.1074C425.554 40.4701 426.061 40.9821 426.424 41.6434C426.786 42.2941 426.968 43.0461 426.968 43.8994ZM425.064 43.3234C425.053 42.6514 424.813 42.1128 424.344 41.7074C423.874 41.3021 423.293 41.0994 422.6 41.0994C421.97 41.0994 421.432 41.3021 420.984 41.7074C420.536 42.1021 420.269 42.6408 420.184 43.3234H425.064ZM436.843 43.8994C436.843 44.2301 436.821 44.5288 436.779 44.7954H430.043C430.096 45.4994 430.357 46.0648 430.827 46.4914C431.296 46.9181 431.872 47.1314 432.555 47.1314C433.536 47.1314 434.229 46.7208 434.635 45.8994H436.602C436.336 46.7101 435.851 47.3768 435.147 47.8994C434.453 48.4114 433.589 48.6674 432.555 48.6674C431.712 48.6674 430.955 48.4808 430.283 48.1074C429.621 47.7234 429.099 47.1901 428.715 46.5074C428.341 45.8141 428.155 45.0141 428.155 44.1074C428.155 43.2008 428.336 42.4061 428.699 41.7234C429.072 41.0301 429.589 40.4968 430.251 40.1234C430.923 39.7501 431.691 39.5634 432.555 39.5634C433.387 39.5634 434.128 39.7448 434.779 40.1074C435.429 40.4701 435.936 40.9821 436.299 41.6434C436.661 42.2941 436.843 43.0461 436.843 43.8994ZM434.939 43.3234C434.928 42.6514 434.688 42.1128 434.219 41.7074C433.749 41.3021 433.168 41.0994 432.475 41.0994C431.845 41.0994 431.307 41.3021 430.859 41.7074C430.411 42.1021 430.144 42.6408 430.059 43.3234H434.939ZM440.766 41.1954V46.0754C440.766 46.4061 440.84 46.6461 440.99 46.7954C441.15 46.9341 441.416 47.0034 441.79 47.0034H442.91V48.5234H441.47C440.648 48.5234 440.019 48.3314 439.582 47.9474C439.144 47.5634 438.926 46.9394 438.926 46.0754V41.1954H437.886V39.7074H438.926V37.5154H440.766V39.7074H442.91V41.1954H440.766Z" fill="black"/>
<g clip-path="url(#clip4_201_367)">
<path d="M279.787 46.562V49.5316H277.296C274.638 49.4481 273.218 48.0127 273.218 45.3165V38.5342H271.479V35.9291H273.218V33.0127H276.894V35.8987H279.704V38.4962H276.894V44.9519C276.894 45.8253 277.068 46.524 278.413 46.524L279.787 46.562Z" fill="#232536"/>
<path d="M256.828 42.757V42.5595C256.788 41.686 256.921 40.8132 257.219 39.9912C257.517 39.1691 257.975 38.4141 258.565 37.7692C259.156 37.1243 259.868 36.6023 260.661 36.2331C261.453 35.8639 262.311 35.6548 263.185 35.6177C263.359 35.6177 263.542 35.6177 263.716 35.6177C267.187 35.6177 270.233 37.638 270.233 42.4532V43.4785H260.587C260.686 45.6962 261.886 46.9494 263.906 46.9494C265.646 46.9494 266.458 46.1899 266.694 45.081H270.165C269.739 47.9747 267.43 49.5848 263.777 49.5848C259.767 49.5544 256.828 47.0177 256.828 42.757ZM266.618 41.1544C266.489 39.1342 265.471 38.162 263.701 38.162C261.932 38.162 260.914 39.2557 260.663 41.1544H266.618Z" fill="#232536"/>
<path d="M241.82 42.757V42.5595C241.78 41.6872 241.913 40.8156 242.21 39.9945C242.507 39.1735 242.964 38.419 243.553 37.7744C244.142 37.1297 244.852 36.6074 245.643 36.2373C246.434 35.8673 247.29 35.6567 248.162 35.6177C248.337 35.6177 248.519 35.6177 248.694 35.6177C252.165 35.6177 255.218 37.638 255.218 42.4532V43.4785H245.58C245.678 45.6962 246.878 46.9494 248.899 46.9494C250.638 46.9494 251.451 46.1899 251.686 45.081H255.157C254.724 47.9747 252.415 49.5848 248.762 49.5848C244.759 49.5544 241.82 47.0177 241.82 42.757ZM251.61 41.1544C251.481 39.1342 250.463 38.162 248.694 38.162C246.924 38.162 245.937 39.2861 245.656 41.1468L251.61 41.1544Z" fill="#232536"/>
<path d="M220.76 35.8987H224.648L227.025 44.9063L229.63 35.8987H232.668L235.023 44.9063L237.529 35.8987H241.091L236.868 49.281H233.223L230.944 40.881L228.506 49.281H224.815L220.76 35.8987Z" fill="#232536"/>
<path d="M208.403 45.0734H211.873C212.033 46.281 212.633 46.9722 214.228 46.9722C215.656 46.9722 216.317 46.4329 216.317 45.5139C216.317 44.5949 215.557 44.2076 213.613 43.9342C210.051 43.3949 208.676 42.3696 208.676 39.757C208.676 36.9696 211.228 35.5873 213.992 35.5873C216.962 35.5873 219.203 36.6658 219.522 39.7418H216.096C216.074 39.504 216.006 39.2729 215.894 39.0618C215.782 38.8507 215.63 38.6639 215.446 38.5121C215.261 38.3602 215.049 38.2464 214.82 38.1772C214.592 38.108 214.352 38.0848 214.114 38.1089H214C212.8 38.1089 212.101 38.6709 212.101 39.4911C212.101 40.3114 212.747 40.6684 214.706 40.9494C218.033 41.4506 219.894 42.2937 219.894 45.157C219.894 48.0203 217.79 49.5544 214.266 49.5544C210.742 49.5544 208.501 47.9671 208.403 45.0734Z" fill="#232536"/>
<path d="M193.653 35.8987H197.329V38.0177C197.743 37.24 198.372 36.5975 199.141 36.1667C199.91 35.7358 200.786 35.5348 201.666 35.5873C204.271 35.5873 206.162 37.1747 206.162 40.7975V49.3114H202.532V41.3291C202.532 39.5139 201.825 38.6481 200.185 38.6481C199.838 38.6179 199.489 38.6565 199.157 38.7617C198.825 38.8668 198.518 39.0365 198.251 39.2609C197.985 39.4853 197.766 39.76 197.607 40.0693C197.447 40.3786 197.35 40.7164 197.322 41.0633C197.303 41.2248 197.303 41.3879 197.322 41.5494V49.281H193.653V35.8987Z" fill="#232536"/>
<path d="M186.559 32.5342C186.546 32.1677 186.642 31.8055 186.835 31.4934C187.027 31.1813 187.308 30.9334 187.642 30.7811C187.975 30.6288 188.347 30.5789 188.709 30.6377C189.071 30.6965 189.407 30.8614 189.675 31.1116C189.943 31.3617 190.131 31.6858 190.215 32.0428C190.299 32.3998 190.275 32.7737 190.147 33.1171C190.018 33.4606 189.79 33.7581 189.492 33.972C189.195 34.186 188.84 34.3067 188.473 34.319H188.405C188.178 34.3334 187.949 34.3027 187.734 34.2288C187.518 34.1548 187.319 34.039 187.149 33.888C186.978 33.737 186.838 33.5538 186.739 33.3488C186.639 33.1439 186.581 32.9212 186.567 32.6937C186.561 32.6408 186.558 32.5875 186.559 32.5342ZM186.559 35.8987H190.273V49.281H186.575L186.559 35.8987Z" fill="#232536"/>
<path d="M172.562 30.9924H184.304V34.2354H176.709V39.0734H182.724V42.1949H176.701V49.281H172.562V30.9924Z" fill="#232536"/>
<path d="M165.476 36.9772C165.476 38.1241 165.476 39.5215 163.896 40.0911C165.514 40.6456 165.476 41.8228 165.476 43.0532V47.6101C165.476 48.4759 165.825 49 166.448 49.1291C166.585 49.1753 166.729 49.1959 166.873 49.1899H168.392V52.2278H165.886C163.213 52.2278 161.739 50.7089 161.739 47.8911V42.4987C161.72 42.2219 161.598 41.9622 161.397 41.771C161.196 41.5798 160.931 41.4709 160.653 41.4658H160V38.8H160.653C160.936 38.7963 161.207 38.6837 161.409 38.4858C161.611 38.2878 161.73 38.0195 161.739 37.7367V32.2684C161.739 29.4962 163.182 28 165.886 28H168.415V30.9924H166.896C166.752 30.9928 166.608 31.0159 166.471 31.0608C165.848 31.2203 165.499 31.7367 165.499 32.5797L165.476 36.9772Z" fill="#232536"/>
</g>
<defs>
<clipPath id="clip0_201_367">
<rect width="16" height="16" fill="white" transform="translate(1296 32.5225)"/>
</clipPath>
<clipPath id="clip1_201_367">
<rect width="16" height="16" fill="white" transform="translate(1338.67 32.5225)"/>
</clipPath>
<clipPath id="clip2_201_367">
<rect width="16" height="16" fill="white" transform="translate(1381.33 32.5225)"/>
</clipPath>
<clipPath id="clip3_201_367">
<rect width="16" height="16" fill="white" transform="translate(1424 32.5225)"/>
</clipPath>
<clipPath id="clip4_201_367">
<rect width="120" height="24.3038" fill="white" transform="translate(160 28)"/>
</clipPath>
</defs>
</svg>
