<svg width="144" height="17" viewBox="0 0 144 17" fill="none" xmlns="http://www.w3.org/2000/svg">
<g clip-path="url(#clip0_639_149)">
<path d="M15.9999 8.52246C15.9999 4.10418 12.4182 0.522461 7.99988 0.522461C3.5816 0.522461 -0.00012207 4.10418 -0.00012207 8.52246C-0.00012207 12.5154 2.92535 15.8251 6.74988 16.4253V10.835H4.71863V8.52246H6.74988V6.75996C6.74988 4.75496 7.94425 3.64746 9.7716 3.64746C10.6466 3.64746 11.5624 3.80371 11.5624 3.80371V5.77246H10.5536C9.55988 5.77246 9.24988 6.38918 9.24988 7.02246V8.52246H11.4686L11.1139 10.835H9.24988V16.4253C13.0744 15.8251 15.9999 12.5154 15.9999 8.52246Z" fill="#232536"/>
</g>
<g clip-path="url(#clip1_639_149)">
<path d="M47.6999 15.0225C53.7362 15.0225 57.0387 10.0204 57.0387 5.68379C57.0387 5.54317 57.0356 5.39942 57.0293 5.25879C57.6718 4.79419 58.2262 4.21872 58.6665 3.55942C58.0682 3.82562 57.4329 3.99947 56.7824 4.07504C57.4674 3.66449 57.9802 3.01953 58.2259 2.25973C57.5815 2.64159 56.8769 2.91096 56.1421 3.05629C55.6471 2.53026 54.9925 2.18196 54.2796 2.06525C53.5668 1.94854 52.8353 2.06992 52.1983 2.41062C51.5614 2.75131 51.0544 3.29236 50.7557 3.95009C50.4571 4.60783 50.3835 5.34563 50.5462 6.04942C49.2415 5.98395 47.9651 5.64502 46.7998 5.05462C45.6345 4.46421 44.6063 3.63551 43.7818 2.62223C43.3628 3.34471 43.2345 4.19965 43.4232 5.01328C43.6118 5.82691 44.1032 6.53818 44.7974 7.00254C44.2763 6.986 43.7665 6.84567 43.3103 6.59317V6.63379C43.3098 7.39199 43.5719 8.12694 44.052 8.71373C44.5322 9.30052 45.2007 9.70293 45.944 9.85254C45.4612 9.98464 44.9545 10.0039 44.4631 9.90879C44.6728 10.5608 45.0809 11.1311 45.6304 11.5401C46.1798 11.9491 46.8433 12.1763 47.5281 12.19C46.3655 13.1033 44.9293 13.5986 43.4509 13.5963C43.1887 13.5959 42.9268 13.5798 42.6665 13.5482C44.1684 14.5117 45.9155 15.0235 47.6999 15.0225Z" fill="#232536"/>
</g>
<g clip-path="url(#clip2_639_149)">
<path d="M93.3333 1.96309C95.4708 1.96309 95.7239 1.97246 96.5645 2.00996C97.3458 2.04434 97.7676 2.17559 98.0489 2.28496C98.4208 2.42871 98.6895 2.60371 98.9676 2.88184C99.2489 3.16309 99.4208 3.42871 99.5645 3.80059C99.6739 4.08184 99.8051 4.50684 99.8395 5.28496C99.877 6.12871 99.8864 6.38184 99.8864 8.51621C99.8864 10.6537 99.877 10.9068 99.8395 11.7475C99.8051 12.5287 99.6739 12.9506 99.5645 13.2318C99.4208 13.6037 99.2458 13.8725 98.9676 14.1506C98.6864 14.4318 98.4208 14.6037 98.0489 14.7475C97.7676 14.8568 97.3426 14.9881 96.5645 15.0225C95.7208 15.06 95.4676 15.0693 93.3333 15.0693C91.1958 15.0693 90.9426 15.06 90.102 15.0225C89.3208 14.9881 88.8989 14.8568 88.6176 14.7475C88.2458 14.6037 87.977 14.4287 87.6989 14.1506C87.4176 13.8693 87.2458 13.6037 87.102 13.2318C86.9926 12.9506 86.8614 12.5256 86.827 11.7475C86.7895 10.9037 86.7801 10.6506 86.7801 8.51621C86.7801 6.37871 86.7895 6.12559 86.827 5.28496C86.8614 4.50371 86.9926 4.08184 87.102 3.80059C87.2458 3.42871 87.4208 3.15996 87.6989 2.88184C87.9801 2.60059 88.2458 2.42871 88.6176 2.28496C88.8989 2.17559 89.3239 2.04434 90.102 2.00996C90.9426 1.97246 91.1958 1.96309 93.3333 1.96309ZM93.3333 0.522461C91.1614 0.522461 90.8895 0.531836 90.0364 0.569336C89.1864 0.606836 88.602 0.744336 88.0958 0.941211C87.5676 1.14746 87.1208 1.41934 86.677 1.86621C86.2301 2.30996 85.9583 2.75684 85.752 3.28184C85.5551 3.79121 85.4176 4.37246 85.3801 5.22246C85.3426 6.07871 85.3333 6.35059 85.3333 8.52246C85.3333 10.6943 85.3426 10.9662 85.3801 11.8193C85.4176 12.6693 85.5551 13.2537 85.752 13.76C85.9583 14.2881 86.2301 14.735 86.677 15.1787C87.1208 15.6225 87.5676 15.8975 88.0926 16.1006C88.602 16.2975 89.1833 16.435 90.0333 16.4725C90.8864 16.51 91.1583 16.5193 93.3301 16.5193C95.502 16.5193 95.7739 16.51 96.627 16.4725C97.477 16.435 98.0614 16.2975 98.5676 16.1006C99.0926 15.8975 99.5395 15.6225 99.9833 15.1787C100.427 14.735 100.702 14.2881 100.905 13.7631C101.102 13.2537 101.24 12.6725 101.277 11.8225C101.315 10.9693 101.324 10.6975 101.324 8.52559C101.324 6.35371 101.315 6.08184 101.277 5.22871C101.24 4.37871 101.102 3.79434 100.905 3.28809C100.708 2.75684 100.436 2.30996 99.9895 1.86621C99.5458 1.42246 99.0989 1.14746 98.5739 0.944336C98.0645 0.747461 97.4833 0.609961 96.6333 0.572461C95.777 0.531836 95.5051 0.522461 93.3333 0.522461Z" fill="#232536"/>
<path d="M93.3333 4.41309C91.0645 4.41309 89.2239 6.25371 89.2239 8.52246C89.2239 10.7912 91.0645 12.6318 93.3333 12.6318C95.602 12.6318 97.4426 10.7912 97.4426 8.52246C97.4426 6.25371 95.602 4.41309 93.3333 4.41309ZM93.3333 11.1881C91.8614 11.1881 90.6676 9.99434 90.6676 8.52246C90.6676 7.05059 91.8614 5.85684 93.3333 5.85684C94.8051 5.85684 95.9989 7.05059 95.9989 8.52246C95.9989 9.99434 94.8051 11.1881 93.3333 11.1881Z" fill="#232536"/>
<path d="M98.5645 4.25056C98.5645 4.78181 98.1333 5.20994 97.6051 5.20994C97.0739 5.20994 96.6458 4.77868 96.6458 4.25056C96.6458 3.71931 97.077 3.29118 97.6051 3.29118C98.1333 3.29118 98.5645 3.72243 98.5645 4.25056Z" fill="#232536"/>
</g>
<g clip-path="url(#clip3_639_149)">
<path d="M142.816 0.522461H129.181C128.528 0.522461 128 1.03809 128 1.67559V15.3662C128 16.0037 128.528 16.5225 129.181 16.5225H142.816C143.469 16.5225 144 16.0037 144 15.3693V1.67559C144 1.03809 143.469 0.522461 142.816 0.522461ZM132.747 14.1568H130.372V6.51934H132.747V14.1568ZM131.559 5.47871C130.797 5.47871 130.181 4.86309 130.181 4.10371C130.181 3.34434 130.797 2.72871 131.559 2.72871C132.319 2.72871 132.934 3.34434 132.934 4.10371C132.934 4.85996 132.319 5.47871 131.559 5.47871ZM141.634 14.1568H139.262V10.4443C139.262 9.55996 139.247 8.41934 138.028 8.41934C136.794 8.41934 136.606 9.38496 136.606 10.3818V14.1568H134.237V6.51934H136.512V7.56309H136.544C136.859 6.96309 137.634 6.32871 138.787 6.32871C141.191 6.32871 141.634 7.90996 141.634 9.96621V14.1568V14.1568Z" fill="#232536"/>
</g>
<defs>
<clipPath id="clip0_639_149">
<rect width="16" height="16" fill="white" transform="translate(-0.00012207 0.522461)"/>
</clipPath>
<clipPath id="clip1_639_149">
<rect width="16" height="16" fill="white" transform="translate(42.6665 0.522461)"/>
</clipPath>
<clipPath id="clip2_639_149">
<rect width="16" height="16" fill="white" transform="translate(85.3333 0.522461)"/>
</clipPath>
<clipPath id="clip3_639_149">
<rect width="16" height="16" fill="white" transform="translate(128 0.522461)"/>
</clipPath>
</defs>
</svg>
