<svg width="121" height="13" viewBox="0 0 121 13" fill="none" xmlns="http://www.w3.org/2000/svg">
<path d="M6.32 1.25944C7.408 1.25944 8.37333 1.50477 9.216 1.99544C10.0587 2.47544 10.7147 3.14744 11.184 4.01144C11.6533 4.87544 11.888 5.85677 11.888 6.95544C11.888 8.0541 11.6533 9.04077 11.184 9.91544C10.7147 10.7794 10.0587 11.4568 9.216 11.9474C8.37333 12.4274 7.408 12.6674 6.32 12.6674C5.232 12.6674 4.26133 12.4274 3.408 11.9474C2.56533 11.4568 1.90933 10.7794 1.44 9.91544C0.970667 9.04077 0.736 8.0541 0.736 6.95544C0.736 5.85677 0.970667 4.87544 1.44 4.01144C1.90933 3.14744 2.56533 2.47544 3.408 1.99544C4.26133 1.50477 5.232 1.25944 6.32 1.25944ZM6.32 1.99544C5.34933 1.99544 4.50133 2.1981 3.776 2.60344C3.06133 3.00877 2.50667 3.5901 2.112 4.34744C1.728 5.0941 1.536 5.96344 1.536 6.95544C1.536 7.94744 1.728 8.81677 2.112 9.56344C2.50667 10.3101 3.06133 10.8914 3.776 11.3074C4.50133 11.7234 5.34933 11.9314 6.32 11.9314C7.28 11.9314 8.11733 11.7234 8.832 11.3074C9.55733 10.8914 10.112 10.3101 10.496 9.56344C10.8907 8.81677 11.088 7.94744 11.088 6.95544C11.088 5.96344 10.8907 5.0941 10.496 4.34744C10.112 3.5901 9.56267 3.00877 8.848 2.60344C8.13333 2.1981 7.29067 1.99544 6.32 1.99544ZM6.272 3.27544C5.62133 3.27544 5.02933 3.4301 4.496 3.73944C3.96267 4.0381 3.54133 4.46477 3.232 5.01944C2.93333 5.5741 2.784 6.2141 2.784 6.93944C2.784 7.66477 2.93867 8.3101 3.248 8.87544C3.55733 9.4301 3.97333 9.8621 4.496 10.1714C5.02933 10.4701 5.62133 10.6194 6.272 10.6194C7.08267 10.6194 7.78133 10.4061 8.368 9.97944C8.95467 9.5421 9.34933 8.97144 9.552 8.26744H7.888C7.74933 8.60877 7.552 8.8701 7.296 9.05144C7.04 9.23277 6.69867 9.32344 6.272 9.32344C5.70667 9.32344 5.25333 9.12077 4.912 8.71544C4.57067 8.29944 4.4 7.70744 4.4 6.93944C4.4 6.17144 4.57067 5.58477 4.912 5.17944C5.25333 4.7741 5.70667 4.57144 6.272 4.57144C6.67733 4.57144 7.01867 4.6621 7.296 4.84344C7.584 5.02477 7.78133 5.2861 7.888 5.62744H9.552C9.34933 4.88077 8.96 4.30477 8.384 3.89944C7.808 3.48344 7.104 3.27544 6.272 3.27544ZM14.593 10.0434C15.617 9.1581 16.4223 8.43277 17.009 7.86744C17.6063 7.29144 18.1023 6.6941 18.497 6.07544C18.8917 5.45677 19.089 4.8381 19.089 4.21944C19.089 3.57944 18.9343 3.0781 18.625 2.71544C18.3263 2.35277 17.8517 2.17144 17.201 2.17144C16.5717 2.17144 16.081 2.3741 15.729 2.77944C15.3877 3.1741 15.2063 3.70744 15.185 4.37944H13.425C13.457 3.16344 13.8197 2.23544 14.513 1.59544C15.217 0.94477 16.1077 0.619437 17.185 0.619437C18.3477 0.619437 19.2543 0.939437 19.905 1.57944C20.5663 2.21944 20.897 3.07277 20.897 4.13944C20.897 4.90744 20.6997 5.64877 20.305 6.36344C19.921 7.06744 19.457 7.7021 18.913 8.26744C18.3797 8.8221 17.697 9.46744 16.865 10.2034L16.145 10.8434H21.217V12.3634H13.441V11.0354L14.593 10.0434ZM22.8194 6.53944C22.8194 4.6941 23.1287 3.2541 23.7474 2.21944C24.3767 1.1741 25.454 0.651437 26.9794 0.651437C28.5047 0.651437 29.5767 1.1741 30.1954 2.21944C30.8247 3.2541 31.1394 4.6941 31.1394 6.53944C31.1394 8.4061 30.8247 9.86744 30.1954 10.9234C29.5767 11.9688 28.5047 12.4914 26.9794 12.4914C25.454 12.4914 24.3767 11.9688 23.7474 10.9234C23.1287 9.86744 22.8194 8.4061 22.8194 6.53944ZM29.3474 6.53944C29.3474 5.67544 29.2887 4.94477 29.1714 4.34744C29.0647 3.7501 28.8407 3.26477 28.4994 2.89144C28.158 2.50744 27.6514 2.31544 26.9794 2.31544C26.3074 2.31544 25.8007 2.50744 25.4594 2.89144C25.118 3.26477 24.8887 3.7501 24.7714 4.34744C24.6647 4.94477 24.6114 5.67544 24.6114 6.53944C24.6114 7.43544 24.6647 8.18744 24.7714 8.79544C24.878 9.40344 25.102 9.8941 25.4434 10.2674C25.7954 10.6408 26.3074 10.8274 26.9794 10.8274C27.6514 10.8274 28.158 10.6408 28.4994 10.2674C28.8514 9.8941 29.0807 9.40344 29.1874 8.79544C29.294 8.18744 29.3474 7.43544 29.3474 6.53944ZM34.0774 10.0434C35.1014 9.1581 35.9067 8.43277 36.4934 7.86744C37.0907 7.29144 37.5867 6.6941 37.9814 6.07544C38.376 5.45677 38.5734 4.8381 38.5734 4.21944C38.5734 3.57944 38.4187 3.0781 38.1094 2.71544C37.8107 2.35277 37.336 2.17144 36.6854 2.17144C36.056 2.17144 35.5654 2.3741 35.2134 2.77944C34.872 3.1741 34.6907 3.70744 34.6694 4.37944H32.9094C32.9414 3.16344 33.304 2.23544 33.9974 1.59544C34.7014 0.94477 35.592 0.619437 36.6694 0.619437C37.832 0.619437 38.7387 0.939437 39.3894 1.57944C40.0507 2.21944 40.3814 3.07277 40.3814 4.13944C40.3814 4.90744 40.184 5.64877 39.7894 6.36344C39.4054 7.06744 38.9414 7.7021 38.3974 8.26744C37.864 8.8221 37.1814 9.46744 36.3494 10.2034L35.6294 10.8434H40.7014V12.3634H32.9254V11.0354L34.0774 10.0434ZM42.0638 2.52344V0.859437H45.3918V12.5234H43.5518V2.52344H42.0638ZM58.8378 1.40344V2.89144H54.1178V6.17144H57.7978V7.65944H54.1178V12.5234H52.2938V1.40344H58.8378ZM61.4561 2.53944C61.1255 2.53944 60.8481 2.42744 60.6241 2.20344C60.4001 1.97944 60.2881 1.7021 60.2881 1.37144C60.2881 1.04077 60.4001 0.763437 60.6241 0.539437C60.8481 0.315437 61.1255 0.203437 61.4561 0.203437C61.7761 0.203437 62.0481 0.315437 62.2721 0.539437C62.4961 0.763437 62.6081 1.04077 62.6081 1.37144C62.6081 1.7021 62.4961 1.97944 62.2721 2.20344C62.0481 2.42744 61.7761 2.53944 61.4561 2.53944ZM62.3521 3.70744V12.5234H60.5281V3.70744H62.3521ZM69.1949 3.56344C69.8882 3.56344 70.5069 3.70744 71.0509 3.99544C71.6055 4.28344 72.0375 4.7101 72.3469 5.27544C72.6562 5.84077 72.8109 6.52344 72.8109 7.32344V12.5234H71.0029V7.59544C71.0029 6.8061 70.8055 6.20344 70.4109 5.78744C70.0162 5.36077 69.4775 5.14744 68.7949 5.14744C68.1122 5.14744 67.5682 5.36077 67.1629 5.78744C66.7682 6.20344 66.5709 6.8061 66.5709 7.59544V12.5234H64.7469V3.70744H66.5709V4.71544C66.8695 4.35277 67.2482 4.0701 67.7069 3.86744C68.1762 3.66477 68.6722 3.56344 69.1949 3.56344ZM78.3375 12.6674C77.6442 12.6674 77.0202 12.5448 76.4655 12.2994C75.9215 12.0434 75.4895 11.7021 75.1695 11.2754C74.8495 10.8381 74.6788 10.3528 74.6575 9.81944H76.5455C76.5775 10.1928 76.7535 10.5074 77.0735 10.7634C77.4042 11.0088 77.8148 11.1314 78.3055 11.1314C78.8175 11.1314 79.2122 11.0354 79.4895 10.8434C79.7775 10.6408 79.9215 10.3848 79.9215 10.0754C79.9215 9.74477 79.7615 9.49944 79.4415 9.33944C79.1322 9.17944 78.6362 9.00344 77.9535 8.81144C77.2922 8.6301 76.7535 8.4541 76.3375 8.28344C75.9215 8.11277 75.5588 7.85144 75.2495 7.49944C74.9508 7.14744 74.8015 6.68344 74.8015 6.10744C74.8015 5.6381 74.9402 5.21144 75.2175 4.82744C75.4948 4.43277 75.8895 4.12344 76.4015 3.89944C76.9242 3.67544 77.5215 3.56344 78.1935 3.56344C79.1962 3.56344 80.0015 3.81944 80.6095 4.33144C81.2282 4.83277 81.5588 5.52077 81.6015 6.39544H79.7775C79.7455 6.00077 79.5855 5.6861 79.2975 5.45144C79.0095 5.21677 78.6202 5.09944 78.1295 5.09944C77.6495 5.09944 77.2815 5.1901 77.0255 5.37144C76.7695 5.55277 76.6415 5.79277 76.6415 6.09144C76.6415 6.3261 76.7268 6.52344 76.8975 6.68344C77.0682 6.84344 77.2762 6.97144 77.5215 7.06744C77.7668 7.15277 78.1295 7.26477 78.6095 7.40344C79.2495 7.5741 79.7722 7.7501 80.1775 7.93144C80.5935 8.1021 80.9508 8.3581 81.2495 8.69944C81.5482 9.04077 81.7028 9.4941 81.7135 10.0594C81.7135 10.5608 81.5748 11.0088 81.2975 11.4034C81.0202 11.7981 80.6255 12.1074 80.1135 12.3314C79.6122 12.5554 79.0202 12.6674 78.3375 12.6674ZM95.5244 3.70744L92.7884 12.5234H90.8684L89.0924 6.01144L87.3164 12.5234H85.3964L82.6444 3.70744H84.5004L86.3404 10.7954L88.2124 3.70744H90.1164L91.9084 10.7634L93.7324 3.70744H95.5244ZM104.968 7.89944C104.968 8.2301 104.946 8.52877 104.904 8.79544H98.1675C98.2208 9.49944 98.4822 10.0648 98.9515 10.4914C99.4208 10.9181 99.9968 11.1314 100.68 11.1314C101.661 11.1314 102.354 10.7208 102.76 9.89944H104.727C104.461 10.7101 103.976 11.3768 103.272 11.8994C102.578 12.4114 101.714 12.6674 100.68 12.6674C99.8368 12.6674 99.0795 12.4808 98.4075 12.1074C97.7462 11.7234 97.2235 11.1901 96.8395 10.5074C96.4662 9.8141 96.2795 9.0141 96.2795 8.10744C96.2795 7.20077 96.4608 6.4061 96.8235 5.72344C97.1968 5.0301 97.7142 4.49677 98.3755 4.12344C99.0475 3.7501 99.8155 3.56344 100.68 3.56344C101.512 3.56344 102.253 3.74477 102.904 4.10744C103.554 4.4701 104.061 4.9821 104.424 5.64344C104.786 6.2941 104.968 7.0461 104.968 7.89944ZM103.064 7.32344C103.053 6.65144 102.813 6.11277 102.344 5.70744C101.874 5.3021 101.293 5.09944 100.6 5.09944C99.9702 5.09944 99.4315 5.3021 98.9835 5.70744C98.5355 6.1021 98.2688 6.64077 98.1835 7.32344H103.064ZM114.843 7.89944C114.843 8.2301 114.821 8.52877 114.779 8.79544H108.043C108.096 9.49944 108.357 10.0648 108.827 10.4914C109.296 10.9181 109.872 11.1314 110.555 11.1314C111.536 11.1314 112.229 10.7208 112.635 9.89944H114.602C114.336 10.7101 113.851 11.3768 113.147 11.8994C112.453 12.4114 111.589 12.6674 110.555 12.6674C109.712 12.6674 108.955 12.4808 108.283 12.1074C107.621 11.7234 107.099 11.1901 106.715 10.5074C106.341 9.8141 106.155 9.0141 106.155 8.10744C106.155 7.20077 106.336 6.4061 106.699 5.72344C107.072 5.0301 107.589 4.49677 108.251 4.12344C108.923 3.7501 109.691 3.56344 110.555 3.56344C111.387 3.56344 112.128 3.74477 112.779 4.10744C113.429 4.4701 113.936 4.9821 114.299 5.64344C114.661 6.2941 114.843 7.0461 114.843 7.89944ZM112.939 7.32344C112.928 6.65144 112.688 6.11277 112.219 5.70744C111.749 5.3021 111.168 5.09944 110.475 5.09944C109.845 5.09944 109.307 5.3021 108.859 5.70744C108.411 6.1021 108.144 6.64077 108.059 7.32344H112.939ZM118.766 5.19544V10.0754C118.766 10.4061 118.84 10.6461 118.99 10.7954C119.15 10.9341 119.416 11.0034 119.79 11.0034H120.91V12.5234H119.47C118.648 12.5234 118.019 12.3314 117.582 11.9474C117.144 11.5634 116.926 10.9394 116.926 10.0754V5.19544H115.886V3.70744H116.926V1.51544H118.766V3.70744H120.91V5.19544H118.766Z" fill="black"/>
</svg>
